
<svg version="1.0" xmlns="http://www.w3.org/2000/svg"
 width="512.000000pt" height="512.000000pt" viewBox="0 0 512.000000 512.000000"
 preserveAspectRatio="xMidYMid meet">

<g transform="translate(0.000000,512.000000) scale(0.100000,-0.100000)"
fill="#000000" stroke="none">
<path d="M782 4609 c-138 -69 -164 -258 -51 -366 62 -59 89 -63 421 -63 187 0
307 4 319 10 10 6 19 20 19 30 0 41 29 19 44 -32 24 -87 176 -664 176 -671 0
-4 -74 -7 -165 -7 l-165 0 0 -55 0 -55 535 0 535 0 0 175 0 175 230 0 230 0 0
-231 0 -230 -565 2 c-311 1 -567 0 -569 -2 -2 -2 29 -128 70 -279 40 -151 73
-278 74 -282 0 -5 -18 -8 -40 -8 l-40 0 0 -55 0 -55 535 0 535 0 0 -240 0
-240 -428 0 -429 0 -120 -122 c-98 -100 -124 -133 -140 -178 -74 -199 5 -399
196 -493 59 -29 73 -32 187 -35 152 -5 159 -12 82 -93 -266 -275 -124 -727
250 -800 289 -56 563 171 562 465 -1 135 -40 232 -133 332 -92 99 -115 94 384
94 505 0 486 5 388 -97 -253 -264 -128 -695 228 -788 252 -66 517 98 578 357
19 81 19 139 0 213 -23 89 -63 162 -123 223 -77 79 -72 86 73 92 100 4 126 9
155 27 114 71 94 244 -33 292 -19 8 -412 11 -1246 11 -1331 0 -1243 -4 -1243
56 0 20 33 60 153 180 l153 153 816 3 815 3 66 31 c37 18 84 48 106 68 82 73
89 96 289 908 102 414 186 763 186 775 1 56 92 53 -1373 53 -742 0 -1349 2
-1349 4 0 29 -165 618 -178 635 -41 55 -67 66 -178 71 -99 5 -105 6 -117 30
l-13 25 -324 3 c-314 2 -326 1 -368 -19z m598 -204 l0 -115 -243 0 c-252 0
-295 5 -333 41 -48 45 -38 135 20 170 28 17 52 19 294 19 l262 0 0 -115z m960
-775 l0 -120 -139 0 c-77 0 -142 4 -146 9 -3 5 -18 59 -34 120 l-29 111 174 0
174 0 0 -120z m1138 -107 l-3 -228 -227 -3 -228 -2 0 230 0 230 230 0 230 0
-2 -227z m570 0 l-3 -228 -227 -3 -228 -2 0 230 0 230 230 0 230 0 -2 -227z
m510 215 c-3 -7 -29 -111 -59 -230 l-54 -218 -142 0 -143 0 0 230 0 230 201 0
c157 0 200 -3 197 -12z m-2218 -788 l0 -230 -39 0 -39 0 -21 83 c-11 45 -38
148 -60 230 l-39 147 99 0 99 0 0 -230z m570 0 l0 -230 -230 0 -230 0 0 230 0
230 230 0 230 0 0 -230z m568 -2 l-3 -233 -227 -3 -228 -2 0 235 0 235 230 0
230 0 -2 -232z m570 0 l-3 -233 -227 -3 -228 -2 0 235 0 235 230 0 230 0 -2
-232z m365 205 c-3 -16 -30 -120 -58 -233 l-51 -205 -72 -3 -72 -3 0 236 0
235 130 0 130 0 -7 -27z m-933 -788 l0 -235 -230 0 -230 0 0 235 0 235 230 0
230 0 0 -235z m570 10 l0 -224 -37 -10 c-21 -6 -125 -11 -230 -11 l-193 0 0
235 0 235 230 0 230 0 0 -225z m189 74 c-21 -83 -48 -165 -59 -183 l-20 -31 0
183 0 182 59 0 59 0 -39 -151z m-1469 -1158 c0 -22 -112 -317 -127 -333 -21
-23 -75 -23 -95 0 -13 13 -128 319 -128 337 0 3 79 5 175 5 96 0 175 -4 175
-9z m1460 6 c0 -23 -124 -335 -136 -344 -27 -19 -72 -16 -92 7 -9 11 -27 49
-38 83 -12 34 -38 106 -57 160 l-35 97 179 0 c98 0 179 -1 179 -3z m-1683
-463 c47 -12 121 2 158 30 l35 27 0 -29 c0 -39 -38 -93 -80 -114 -89 -45 -191
8 -207 105 l-6 38 38 -26 c21 -14 49 -28 62 -31z m1384 39 c21 -25 73 -43 127
-43 36 0 60 7 95 30 46 29 47 29 47 7 0 -36 -42 -99 -80 -118 -87 -47 -196 9
-214 109 -6 35 4 41 25 15z"/>
<path d="M762 3458 l3 -53 85 0 85 0 3 53 3 52 -91 0 -91 0 3 -52z"/>
<path d="M1070 3455 l0 -55 85 0 85 0 0 55 0 55 -85 0 -85 0 0 -55z"/>
<path d="M330 3075 l0 -55 91 0 90 0 -3 53 -3 52 -87 3 -88 3 0 -56z"/>
<path d="M640 3075 l0 -55 535 0 535 0 0 55 0 55 -535 0 -535 0 0 -55z"/>
<path d="M1230 2665 l0 -55 85 0 85 0 0 55 0 55 -85 0 -85 0 0 -55z"/>
<path d="M1540 2665 l0 -55 85 0 85 0 0 55 0 55 -85 0 -85 0 0 -55z"/>
<path d="M1983 2486 c3 -8 11 -34 17 -58 6 -24 13 -51 16 -60 5 -17 -12 -18
-256 -18 l-261 0 3 -52 3 -53 535 0 535 0 3 53 3 52 -65 0 -66 0 0 75 0 75
-55 0 c-53 0 -55 -1 -56 -27 l-1 -28 -7 25 -7 25 -173 3 c-149 2 -173 0 -168
-12z"/>
<path d="M890 2295 l0 -55 85 0 85 0 0 55 0 55 -85 0 -85 0 0 -55z"/>
<path d="M1200 2295 l0 -55 85 0 85 0 0 55 0 55 -85 0 -85 0 0 -55z"/>
</g>
</svg>
